<?xml version='1.0' encoding='UTF-8' standalone='no'?>
<svg xmlns:xlink="http://www.w3.org/1999/xlink" xmlns:cc="http://creativecommons.org/ns#" width="209.973mm" height="209.973mm" viewBox="0 0 2480 2480" baseProfile="tiny" xmlns="http://www.w3.org/2000/svg" version="1.2">
 <defs/>
 <g stroke="black" stroke-linejoin="bevel" fill-rule="evenodd" fill="none" stroke-linecap="square" stroke-width="1">
  <g stroke="#000000" transform="matrix(1,0,0,1,0,0)" font-size="32.8125" font-weight="400" stroke-linejoin="bevel" font-family="MS Shell Dlg 2" fill="none" stroke-linecap="square" font-style="normal" stroke-width="1" stroke-opacity="1"/>
  <g stroke="#000000" transform="matrix(1,0,0,1,0,0)" font-size="32.8125" font-weight="400" stroke-linejoin="bevel" font-family="MS Shell Dlg 2" fill="none" stroke-linecap="square" font-style="normal" stroke-width="1" stroke-opacity="1"/>
  <g stroke="#000000" transform="matrix(11.8095,0,0,11.8095,0,0)" font-size="32.8125" font-weight="400" stroke-linejoin="bevel" font-family="MS Shell Dlg 2" fill="none" stroke-linecap="square" font-style="normal" stroke-width="1" stroke-opacity="1"/>
  <g stroke="#000000" transform="matrix(0.999873,0,0,0.999873,0,0)" font-size="32.8125" font-weight="400" stroke-linejoin="bevel" font-family="MS Shell Dlg 2" fill="none" stroke-linecap="square" font-style="normal" stroke-width="1" stroke-opacity="1"/>
  <g stroke="none" transform="matrix(0.999873,0,0,0.999873,0,0)" font-size="32.8125" font-weight="400" font-family="MS Shell Dlg 2" fill="#ffffff" fill-opacity="1" font-style="normal">
   <path vector-effect="none" fill-rule="evenodd" d="M-2,-2 L2483,-2 L2483,2483 L-2,2483 L-2,-2"/>
  </g>
  <g stroke="#000000" transform="matrix(0.999873,0,0,0.999873,0,0)" font-size="32.8125" font-weight="400" stroke-linejoin="bevel" font-family="MS Shell Dlg 2" fill="none" stroke-linecap="square" font-style="normal" stroke-width="1" stroke-opacity="1"/>
  <g stroke="#000000" transform="matrix(11.8095,0,0,11.8095,0,0)" font-size="32.8125" font-weight="400" stroke-linejoin="bevel" font-family="MS Shell Dlg 2" fill="none" stroke-linecap="square" font-style="normal" stroke-width="1" stroke-opacity="1"/>
  <g stroke="#000000" transform="matrix(11.8095,0,0,11.8095,0,0)" font-size="32.8125" font-weight="400" stroke-linejoin="bevel" font-family="MS Shell Dlg 2" fill="none" stroke-linecap="square" font-style="normal" stroke-width="1" stroke-opacity="1"/>
  <g stroke="#000000" transform="matrix(11.8095,0,0,11.8095,0,0)" font-size="32.8125" font-weight="400" stroke-linejoin="bevel" font-family="MS Shell Dlg 2" fill="none" stroke-linecap="square" font-style="normal" stroke-width="1" stroke-opacity="1"/>
  <g stroke="#000000" transform="matrix(11.8095,0,0,11.8095,0,0)" font-size="32.8125" font-weight="400" stroke-linejoin="bevel" font-family="MS Shell Dlg 2" fill="none" stroke-linecap="square" font-style="normal" stroke-width="1" stroke-opacity="1"/>
  <g stroke="#000000" transform="matrix(11.8095,0,0,11.8095,0,-3.43234e-15)" font-size="32.8125" font-weight="400" stroke-linejoin="bevel" font-family="MS Shell Dlg 2" fill="none" stroke-linecap="square" font-style="normal" stroke-width="1" stroke-opacity="1"/>
  <g stroke="#000000" transform="matrix(11.8095,0,0,11.8095,0,-3.43234e-15)" font-size="32.8125" font-weight="400" stroke-linejoin="bevel" font-family="MS Shell Dlg 2" fill="none" stroke-linecap="square" font-style="normal" stroke-width="1" stroke-opacity="1"/>
  <g stroke="none" transform="matrix(0.999873,0,0,0.999873,0,-3.43234e-15)" font-size="32.8125" font-weight="400" font-family="MS Shell Dlg 2" fill="#000000" fill-opacity="0" font-style="normal">
   <rect x="0" width="2502" height="2480" y="0"/>
  </g>
  <g stroke="#000000" transform="matrix(0.999873,0,0,0.999873,0,-3.43234e-15)" font-size="32.8125" font-weight="400" stroke-linejoin="bevel" font-family="MS Shell Dlg 2" fill="none" stroke-linecap="square" font-style="normal" stroke-width="1" stroke-opacity="1"/>
  <g stroke="none" transform="matrix(0.999873,0,0,0.999873,0,-3.43234e-15)" font-size="32.8125" font-weight="400" font-family="MS Shell Dlg 2" fill="#5558db" fill-opacity="1" font-style="normal">
   <path vector-effect="none" fill-rule="evenodd" d="M1619.67,1874.16 L1824.77,2220.81 L2392.87,1238.74 L1771.84,1607.88 L1619.67,1874.16"/>
  </g>
  <g stroke="none" transform="matrix(0.999873,0,0,0.999873,0,-3.43234e-15)" font-size="32.8125" font-weight="400" font-family="MS Shell Dlg 2" fill="#000000" fill-opacity="1" font-style="normal">
   <path vector-effect="none" fill-rule="evenodd" d="M1771.84,1607.88 L1984.65,1235.75 L2392.87,1238.74 L1771.84,1607.88"/>
  </g>
  <g stroke="none" transform="matrix(0.999873,0,0,0.999873,0,-3.43234e-15)" font-size="32.8125" font-weight="400" font-family="MS Shell Dlg 2" fill="#5cbbff" fill-opacity="1" font-style="normal">
   <path vector-effect="none" fill-rule="evenodd" d="M2392.87,1238.74 L2187.85,882.496 L1044.09,881.238 L1247.3,1239.84 L1984.65,1235.75 L2392.87,1238.74"/>
  </g>
  <g stroke="none" transform="matrix(0.999873,0,0,0.999873,0,-3.43234e-15)" font-size="32.8125" font-weight="400" font-family="MS Shell Dlg 2" fill="#1e4dff" fill-opacity="1" font-style="normal">
   <path vector-effect="none" fill-rule="evenodd" d="M1044.09,881.238 L668.504,1525.31 L494.864,1237.17 L871.713,593.254 L676.053,249.119 L101.657,1240.31 L674.323,2224.59 L1247.3,1239.84 L1044.09,881.238"/>
  </g>
  <g stroke="none" transform="matrix(0.999873,0,0,0.999873,0,-3.43234e-15)" font-size="32.8125" font-weight="400" font-family="MS Shell Dlg 2" fill="#5cbbff" fill-opacity="1" font-style="normal">
   <path vector-effect="none" fill-rule="evenodd" d="M676.053,249.119 L1827.52,253.995 L2023.49,588.535 L871.713,593.254 L676.053,249.119"/>
  </g>
  <g stroke="#000000" transform="matrix(0.999873,0,0,0.999873,0,-3.43234e-15)" font-size="32.8125" font-weight="400" stroke-linejoin="bevel" font-family="MS Shell Dlg 2" fill="none" stroke-linecap="square" font-style="normal" stroke-width="1" stroke-opacity="1"/>
  <g stroke="#000000" transform="matrix(11.8095,0,0,11.8095,0,-3.43234e-15)" font-size="32.8125" font-weight="400" stroke-linejoin="bevel" font-family="MS Shell Dlg 2" fill="none" stroke-linecap="square" font-style="normal" stroke-width="1" stroke-opacity="1"/>
  <g stroke="#000000" transform="matrix(11.8095,0,0,11.8095,0,-3.43234e-15)" font-size="32.8125" font-weight="400" stroke-linejoin="bevel" font-family="MS Shell Dlg 2" fill="none" stroke-linecap="square" font-style="normal" stroke-width="1" stroke-opacity="1"/>
  <g stroke="#000000" transform="matrix(11.8095,0,0,11.8095,0,-3.43234e-15)" font-size="32.8125" font-weight="400" stroke-linejoin="bevel" font-family="MS Shell Dlg 2" fill="none" stroke-linecap="square" font-style="normal" stroke-width="1" stroke-opacity="1"/>
  <g stroke="#000000" transform="matrix(1,0,0,1,0,0)" font-size="32.8125" font-weight="400" stroke-linejoin="bevel" font-family="MS Shell Dlg 2" fill="none" stroke-linecap="square" font-style="normal" stroke-width="1" stroke-opacity="1"/>
  <g stroke="#000000" transform="matrix(11.8095,0,0,11.8095,0,-3.43234e-15)" font-size="32.8125" font-weight="400" stroke-linejoin="bevel" font-family="MS Shell Dlg 2" fill="none" stroke-linecap="square" font-style="normal" stroke-width="1" stroke-opacity="1"/>
  <g stroke="#000000" transform="matrix(11.8095,0,0,11.8095,0,-3.43234e-15)" font-size="32.8125" font-weight="400" stroke-linejoin="bevel" font-family="MS Shell Dlg 2" fill="none" stroke-linecap="square" font-style="normal" stroke-width="1" stroke-opacity="1"/>
  <g stroke="#000000" transform="matrix(11.8095,0,0,11.8095,0,0)" font-size="32.8125" font-weight="400" stroke-linejoin="bevel" font-family="MS Shell Dlg 2" fill="none" stroke-linecap="square" font-style="normal" stroke-width="1" stroke-opacity="1"/>
  <g stroke="#000000" transform="matrix(11.8095,0,0,11.8095,0,0)" font-size="32.8125" font-weight="400" stroke-linejoin="bevel" font-family="MS Shell Dlg 2" fill="none" stroke-linecap="square" font-style="normal" stroke-width="1" stroke-opacity="1"/>
  <g stroke="#000000" transform="matrix(1,0,0,1,0,0)" font-size="32.8125" font-weight="400" stroke-linejoin="bevel" font-family="MS Shell Dlg 2" fill="none" stroke-linecap="square" font-style="normal" stroke-width="1" stroke-opacity="1"/>
 </g>
 <metadata>
  <rdf:RDF xmlns:rdf="http://www.w3.org/1999/02/22-rdf-syntax-ns#" xmlns:rdfs="http://www.w3.org/2000/01/rdf-schema#" xmlns:dc="http://purl.org/dc/elements/1.1/">
   <rdf:Description dc:identifier="" dc:description="" dc:format="image/svg+xml" dc:title="" dc:date="2021-02-08T15:13:32">
    <dc:creator>
     <rdf:Bag>
      <rdf:li>Topi Tjukanov</rdf:li>
     </rdf:Bag>
    </dc:creator>
    <dc:publisher>
     <rdf:Bag>
      <rdf:li>QGIS 3.16.2-Hannover</rdf:li>
     </rdf:Bag>
    </dc:publisher>
    <dc:subject>
     <rdf:Bag/>
    </dc:subject>
   </rdf:Description>
   <cc:Work rdf:about="">
    <dc:format>image/svg+xml</dc:format>
    <dc:title></dc:title>
    <dc:date>2021-02-08T15:13:32</dc:date>
    <dc:identifier></dc:identifier>
    <dc:description></dc:description>
    <dc:creator>
     <cc:Agent>
      <dc:title>Topi Tjukanov</dc:title>
     </cc:Agent>
    </dc:creator>
    <dc:publisher>
     <cc:Agent>
      <dc:title>QGIS 3.16.2-Hannover</dc:title>
     </cc:Agent>
    </dc:publisher>
   </cc:Work>
  </rdf:RDF>
 </metadata>
</svg>
